<svg width="42" height="43" viewBox="0 0 42 43" fill="none" xmlns="http://www.w3.org/2000/svg">
<g id="devicon:linkedin">
<path id="Vector" d="M38.0625 1.56265H3.9375C3.16323 1.55477 2.41745 1.85437 1.86381 2.3957C1.31017 2.93704 0.993894 3.6759 0.984375 4.45015V38.713C0.995616 39.4861 1.31265 40.2233 1.8661 40.7632C2.41955 41.3031 3.16435 41.6018 3.9375 41.5939H38.0625C38.8368 41.6 39.5821 41.2994 40.1354 40.7578C40.6888 40.2161 41.0052 39.4774 41.0156 38.7031V4.44031C41.0018 3.66832 40.6839 2.93299 40.1309 2.39414C39.5779 1.85529 38.8346 1.55648 38.0625 1.56265Z" fill="#0076B2"/>
<path id="Vector_2" d="M6.91098 16.5679H12.8533V35.6877H6.91098V16.5679ZM9.88379 7.05225C10.5653 7.05225 11.2316 7.25439 11.7982 7.63311C12.3649 8.01184 12.8065 8.55011 13.0672 9.17985C13.3278 9.80959 13.3959 10.5025 13.2627 11.1709C13.1295 11.8393 12.801 12.4532 12.3188 12.9349C11.8367 13.4166 11.2225 13.7445 10.5539 13.8771C9.88538 14.0096 9.19254 13.9409 8.56305 13.6797C7.93356 13.4184 7.3957 12.9763 7.01752 12.4093C6.63934 11.8423 6.43783 11.1758 6.43848 10.4943C6.43935 9.58109 6.80272 8.70561 7.44875 8.06019C8.09477 7.41478 8.97061 7.05225 9.88379 7.05225ZM16.5808 16.5679H22.2771V19.1929H22.3558C23.1499 17.6901 25.0858 16.1052 27.9766 16.1052C33.9944 16.0921 35.11 20.0526 35.11 25.1877V35.6877H29.1677V26.3854C29.1677 24.1705 29.1283 21.3191 26.08 21.3191C23.0318 21.3191 22.5133 23.7341 22.5133 26.241V35.6877H16.5808V16.5679Z" fill="white"/>
</g>
</svg>
