<svg width="42" height="48" viewBox="0 0 42 48" fill="none" xmlns="http://www.w3.org/2000/svg">
<g id="logos:tiktok-icon" clip-path="url(#clip0_4090_944)">
<path id="Vector" d="M31.1261 17.1316C34.1905 19.3211 37.9446 20.6093 41.9991 20.6093V12.8114C41.2317 12.8117 40.4663 12.7316 39.7156 12.5725V18.7106C35.6615 18.7106 31.9079 17.4225 28.8429 15.2333V31.1467C28.8429 39.1075 22.386 45.5604 14.4218 45.5604C11.4501 45.5604 8.68797 44.6625 6.39355 43.1224C9.01232 45.7988 12.6644 47.4589 16.7046 47.4589C24.6695 47.4589 31.1265 41.006 31.1265 33.0449V17.1316H31.1261ZM33.9431 9.26452C32.377 7.55449 31.3486 5.34457 31.1261 2.90135V1.89844H28.9623C29.507 5.00365 31.365 7.65654 33.9431 9.26452ZM11.4309 37.0137C10.5559 35.8672 10.0829 34.4644 10.0851 33.0221C10.0851 29.3812 13.0384 26.4291 16.6821 26.4291C17.361 26.4287 18.0359 26.5329 18.6831 26.738V18.7657C17.9268 18.6622 17.1636 18.618 16.4007 18.6343V24.8395C15.7532 24.6343 15.0779 24.5302 14.3987 24.5307C10.7552 24.5307 7.80203 27.4825 7.80203 31.1239C7.80203 33.6987 9.2781 35.9278 11.4309 37.0137Z" fill="#FF004F"/>
<path id="Vector_2" d="M28.8426 15.2331C31.9078 17.4224 35.6611 18.7104 39.7154 18.7104V12.5723C37.4523 12.0905 35.4489 10.9086 33.9427 9.26452C31.3644 7.65638 29.5068 5.00348 28.9621 1.89844H23.2784V33.0446C23.2655 36.6756 20.3173 39.6156 16.6815 39.6156C14.5392 39.6156 12.6357 38.595 11.4303 37.0136C9.27784 35.9278 7.80161 33.6985 7.80161 31.124C7.80161 27.483 10.7547 24.5309 14.3982 24.5309C15.0963 24.5309 15.7691 24.6395 16.4003 24.8396V18.6345C8.57582 18.7961 2.2832 25.186 2.2832 33.0447C2.2832 36.9678 3.85016 40.5242 6.39346 43.1227C8.68788 44.6625 11.4499 45.5607 14.4217 45.5607C22.3861 45.5607 28.8428 39.1073 28.8428 31.1467L28.8426 15.2331Z" fill="black"/>
<path id="Vector_3" d="M39.7154 12.5721V10.9128C37.6747 10.9157 35.6742 10.3445 33.9427 9.26445C35.4754 10.9415 37.4936 12.098 39.7154 12.5724M28.962 1.8982C28.9101 1.60151 28.8702 1.30283 28.8425 1.00291V0H20.9948V31.1464C20.9823 34.7771 18.0341 37.7171 14.3981 37.7171C13.3674 37.7187 12.3507 37.4777 11.4302 37.0138C12.6356 38.5949 14.5391 39.6154 16.6814 39.6154C20.317 39.6154 23.2655 36.6757 23.2783 33.0446V1.89837L28.962 1.8982ZM16.4007 18.6342V16.8674C15.7449 16.7779 15.0838 16.7331 14.4219 16.7332C6.45668 16.7332 0 23.1865 0 31.1464C0 36.1371 2.53755 40.5353 6.39368 43.1224C3.85038 40.5239 2.28342 36.9674 2.28342 33.0445C2.28342 25.1859 8.57588 18.7958 16.4007 18.6342Z" fill="#00F2EA"/>
</g>
<defs>
<clipPath id="clip0_4090_944">
<rect width="42" height="47.5781" fill="white"/>
</clipPath>
</defs>
</svg>
