<svg width="42" height="43" viewBox="0 0 42 43" fill="none" xmlns="http://www.w3.org/2000/svg">
<g id="logos:telegram" clip-path="url(#clip0_4090_938)">
<path id="Vector" d="M21 0.578125C15.4317 0.578125 10.0866 2.79198 6.15234 6.72883C2.2141 10.6673 0.00112694 16.0085 0 21.5781C0 27.1454 2.21484 32.4906 6.15234 36.4274C10.0866 40.3643 15.4317 42.5781 21 42.5781C26.5683 42.5781 31.9134 40.3643 35.8477 36.4274C39.7852 32.4906 42 27.1454 42 21.5781C42 16.0108 39.7852 10.6657 35.8477 6.72883C31.9134 2.79198 26.5683 0.578125 21 0.578125Z" fill="url(#paint0_linear_4090_938)"/>
<path id="Vector_2" d="M9.50499 21.3564C15.6278 18.6894 19.7097 16.9311 21.7506 16.0815C27.5847 13.6557 28.7955 13.2344 29.5862 13.2201C29.7601 13.2173 30.1473 13.2603 30.4 13.4645C30.61 13.6368 30.6691 13.8698 30.6986 14.0334C30.7248 14.1968 30.7609 14.5692 30.7314 14.8599C30.4164 18.1805 29.0481 26.2386 28.3525 29.9579C28.0605 31.5316 27.4797 32.0592 26.9186 32.1107C25.698 32.223 24.7727 31.3049 23.5914 30.5308C21.7441 29.3191 20.7006 28.565 18.9058 27.3828C16.832 26.0165 18.1773 25.2654 19.3586 24.0382C19.667 23.717 25.0417 18.8296 25.1434 18.3863C25.1566 18.3308 25.1697 18.1241 25.045 18.0151C24.9236 17.9059 24.7431 17.9433 24.6119 17.9728C24.4248 18.0148 21.475 19.9665 15.7525 23.8276C14.9158 24.4031 14.1578 24.6836 13.4753 24.6689C12.7272 24.6528 11.2834 24.2449 10.2105 23.8965C8.89796 23.4689 7.85124 23.2428 7.94312 22.5167C7.98906 22.1387 8.51078 21.7518 9.50499 21.3564Z" fill="white"/>
</g>
<defs>
<linearGradient id="paint0_linear_4090_938" x1="2100" y1="0.578125" x2="2100" y2="4200.58" gradientUnits="userSpaceOnUse">
<stop stop-color="#2AABEE"/>
<stop offset="1" stop-color="#229ED9"/>
</linearGradient>
<clipPath id="clip0_4090_938">
<rect width="42" height="42" fill="white" transform="translate(0 0.578125)"/>
</clipPath>
</defs>
</svg>
