<svg width="42" height="43" viewBox="0 0 42 43" fill="none" xmlns="http://www.w3.org/2000/svg">
<g id="logos:facebook" clip-path="url(#clip0_4090_930)">
<path id="Vector" d="M42 21.5781C42 9.98022 32.5979 0.578125 21 0.578125C9.40209 0.578125 0 9.98022 0 21.5781C0 32.0597 7.67944 40.7477 17.7188 42.323V27.6484H12.3867V21.5781H17.7188V16.9516C17.7188 11.6884 20.854 8.78125 25.6508 8.78125C27.9484 8.78125 30.3516 9.19141 30.3516 9.19141V14.3594H27.7036C25.0948 14.3594 24.2812 15.9782 24.2812 17.639V21.5781H30.1055L29.1744 27.6484H24.2812V42.323C34.3206 40.7477 42 32.0599 42 21.5781Z" fill="#1877F2"/>
<path id="Vector_2" d="M29.1744 27.6484L30.1055 21.5781H24.2812V17.639C24.2812 15.978 25.0948 14.3594 27.7036 14.3594H30.3516V9.19141C30.3516 9.19141 27.9484 8.78125 25.6507 8.78125C20.854 8.78125 17.7188 11.6884 17.7188 16.9516V21.5781H12.3867V27.6484H17.7188V42.323C18.8042 42.4931 19.9013 42.5784 21 42.5781C22.0987 42.5784 23.1958 42.4931 24.2812 42.323V27.6484H29.1744Z" fill="white"/>
</g>
<defs>
<clipPath id="clip0_4090_930">
<rect width="42" height="42" fill="white" transform="translate(0 0.578125)"/>
</clipPath>
</defs>
</svg>
