<svg width="42" height="43" viewBox="0 0 42 43" fill="none" xmlns="http://www.w3.org/2000/svg">
<g id="skill-icons:instagram" clip-path="url(#clip0_4090_933)">
<g id="Group">
<path id="Vector" d="M32.1562 0.578125H9.84375C4.4072 0.578125 0 4.98532 0 10.4219V32.7344C0 38.1709 4.4072 42.5781 9.84375 42.5781H32.1562C37.5928 42.5781 42 38.1709 42 32.7344V10.4219C42 4.98532 37.5928 0.578125 32.1562 0.578125Z" fill="url(#paint0_radial_4090_933)"/>
<path id="Vector_2" d="M32.1562 0.578125H9.84375C4.4072 0.578125 0 4.98532 0 10.4219V32.7344C0 38.1709 4.4072 42.5781 9.84375 42.5781H32.1562C37.5928 42.5781 42 38.1709 42 32.7344V10.4219C42 4.98532 37.5928 0.578125 32.1562 0.578125Z" fill="url(#paint1_radial_4090_933)"/>
<path id="Vector_3" d="M21.0015 5.17188C16.5459 5.17188 15.9866 5.1914 14.2367 5.27097C12.4901 5.35103 11.2978 5.62748 10.2547 6.0332C9.17552 6.45222 8.26022 7.01282 7.34836 7.92501C6.43568 8.83703 5.87508 9.75234 5.45475 10.831C5.04788 11.8745 4.7711 13.0672 4.69252 14.813C4.61426 16.5631 4.59375 17.1225 4.59375 21.5783C4.59375 26.0341 4.61344 26.5915 4.69284 28.3414C4.77323 30.088 5.04968 31.2803 5.45508 32.3234C5.87442 33.4026 6.43502 34.3179 7.34721 35.2298C8.25891 36.1424 9.17421 36.7044 10.2526 37.1234C11.2965 37.5291 12.4889 37.8055 14.2352 37.8856C15.9853 37.9652 16.5441 37.9847 20.9995 37.9847C25.4556 37.9847 26.0131 37.9652 27.763 37.8856C29.5096 37.8055 30.7031 37.5291 31.7471 37.1234C32.8258 36.7044 33.7398 36.1424 34.6513 35.2298C35.564 34.3179 36.1244 33.4026 36.5449 32.3239C36.9482 31.2803 37.2251 30.0877 37.3072 28.3418C37.3857 26.5919 37.4062 26.0341 37.4062 21.5783C37.4062 17.1225 37.3857 16.5634 37.3072 14.8133C37.2251 13.0667 36.9482 11.8746 36.5449 10.8315C36.1244 9.75234 35.564 8.83703 34.6513 7.92501C33.7388 7.01249 32.8261 6.45189 31.7461 6.03337C30.7002 5.62748 29.5073 5.35087 27.7607 5.27097C26.0106 5.1914 25.4535 5.17188 20.9964 5.17188H21.0015ZM19.5297 8.12845C19.9666 8.12779 20.454 8.12845 21.0015 8.12845C25.3821 8.12845 25.9012 8.1442 27.6311 8.22278C29.2307 8.29595 30.0989 8.56321 30.6772 8.78781C31.4429 9.08509 31.9887 9.44062 32.5626 10.015C33.1369 10.5892 33.4922 11.136 33.7903 11.9017C34.0149 12.4792 34.2825 13.3474 34.3553 14.947C34.4339 16.6766 34.451 17.196 34.451 21.5745C34.451 25.953 34.4339 26.4726 34.3553 28.202C34.2822 29.8016 34.0149 30.6698 33.7903 31.2475C33.493 32.0132 33.1369 32.5583 32.5626 33.1322C31.9884 33.7064 31.4432 34.0618 30.6772 34.3593C30.0996 34.5848 29.2307 34.8514 27.6311 34.9246C25.9015 35.0032 25.3821 35.0203 21.0015 35.0203C16.6207 35.0203 16.1014 35.0032 14.372 34.9246C12.7724 34.8508 11.9042 34.5835 11.3254 34.3589C10.5599 34.0615 10.0129 33.7061 9.43868 33.1319C8.86446 32.5577 8.5091 32.0122 8.211 31.2462C7.9864 30.6685 7.71881 29.8003 7.64597 28.2007C7.56738 26.4711 7.55163 25.9517 7.55163 21.5704C7.55163 17.1891 7.56738 16.6725 7.64597 14.9429C7.71914 13.3433 7.9864 12.4751 8.211 11.8968C8.50845 11.1311 8.86446 10.5843 9.43884 10.0101C10.0132 9.43586 10.5599 9.08034 11.3256 8.7824C11.9039 8.55681 12.7724 8.29021 14.372 8.21671C15.8855 8.1483 16.472 8.12779 19.5297 8.12434V8.12845ZM29.7591 10.8525C28.6722 10.8525 27.7904 11.7336 27.7904 12.8206C27.7904 13.9075 28.6722 14.7894 29.7591 14.7894C30.846 14.7894 31.7279 13.9075 31.7279 12.8206C31.7279 11.7337 30.846 10.8519 29.7591 10.8519V10.8525ZM21.0015 13.1529C16.3487 13.1529 12.5762 16.9253 12.5762 21.5783C12.5762 26.2313 16.3487 30.0019 21.0015 30.0019C25.6545 30.0019 29.4256 26.2313 29.4256 21.5783C29.4256 16.9255 25.6541 13.1529 21.0011 13.1529H21.0015ZM21.0015 16.1094C24.0217 16.1094 26.4703 18.5577 26.4703 21.5783C26.4703 24.5985 24.0217 27.0471 21.0015 27.0471C17.9813 27.0471 15.5328 24.5985 15.5328 21.5783C15.5328 18.5577 17.9811 16.1094 21.0015 16.1094Z" fill="white"/>
</g>
</g>
<defs>
<radialGradient id="paint0_radial_4090_933" cx="0" cy="0" r="1" gradientUnits="userSpaceOnUse" gradientTransform="translate(11.1562 45.8129) rotate(-90) scale(41.6251 38.7146)">
<stop stop-color="#FFDD55"/>
<stop offset="0.1" stop-color="#FFDD55"/>
<stop offset="0.5" stop-color="#FF543E"/>
<stop offset="1" stop-color="#C837AB"/>
</radialGradient>
<radialGradient id="paint1_radial_4090_933" cx="0" cy="0" r="1" gradientUnits="userSpaceOnUse" gradientTransform="translate(-7.03516 3.6036) rotate(78.681) scale(18.6067 76.6972)">
<stop stop-color="#3771C8"/>
<stop offset="0.128" stop-color="#3771C8"/>
<stop offset="1" stop-color="#6600FF" stop-opacity="0"/>
</radialGradient>
<clipPath id="clip0_4090_933">
<rect width="42" height="42" fill="white" transform="translate(0 0.578125)"/>
</clipPath>
</defs>
</svg>
